<svg xmlns="http://www.w3.org/2000/svg" width="110.788" height="142.203" viewBox="0 0 110.788 142.203"><g transform="translate(-236.224 -546)"><path d="M13.375.081c7.4,0,13.6,3.1,13.6,6.8H-.23C-.23,3.185,5.979.081,13.375.081Z" transform="translate(278.625 578.518)" fill="#178d5c"/><g transform="translate(237.577 555.971)"><g fill="#178d5c" stroke="rgba(0,0,0,0)" stroke-width="1" opacity="0"><rect width="108.847" height="108.847" stroke="none"/><rect x="0.5" y="0.5" width="107.847" height="107.847" fill="none"/></g><path d="M37.693,33.91,33.747,8.1a44.944,44.944,0,0,1,27.212,0L57.013,33.91a4.549,4.549,0,0,1-4.535,3.855h-10.3a4.537,4.537,0,0,1-4.49-3.855M92.706,51.37h0a9.125,9.125,0,0,0-5.442-8.3A41.188,41.188,0,0,0,70.029,17.356L62.047,39.307A4.5,4.5,0,0,1,57.784,42.3H36.922a4.5,4.5,0,0,1-4.263-2.993L24.676,17.356A41.212,41.212,0,0,0,7.442,43.026,9.189,9.189,0,0,0,2,51.37l29.253,8.345a18.69,18.69,0,0,0,4.989.726H58.374a18.69,18.69,0,0,0,4.989-.726Z" transform="translate(7.071 21.217)" fill="#178d5c"/></g><path d="M-232.531,1360.153c-.664.7-40.7,37.272-41,77-.8,39.241,43.576,43.2,52.56,43.2" transform="translate(512.267 -794.653)" fill="none" stroke="#1e8259" stroke-width="5"/><path d="M-268.361,1360.23c.664.7,44.291,37.195,44.595,76.922.8,39.241-44.387,43.2-53.371,43.2" transform="translate(568.267 -794.653)" fill="none" stroke="#1e8259" stroke-width="5"/><path d="M36,0A36,36,0,0,1,72,36H0A36,36,0,0,1,36,0Z" transform="translate(328 582) rotate(180)" fill="#2cb67d"/><circle cx="6" cy="6" r="6" transform="translate(304 569)" fill="#2cb67d"/><circle cx="6" cy="6" r="6" transform="translate(265 569)" fill="#2cb67d"/></g></svg>