<svg xmlns="http://www.w3.org/2000/svg" width="105.931" height="135.79" viewBox="0 0 105.931 135.79"><g transform="translate(1.405)"><g transform="translate(0 9.513)"><path d="M12.75.081c7.056,0,12.98,2.962,12.98,6.49H-.23C-.23,3.043,5.694.081,12.75.081Z" transform="translate(39.175 21.508)" fill="#6628ae"/><g transform="translate(0 0)"><g fill="#6628ae" stroke="rgba(0,0,0,0)" stroke-width="1" opacity="0"><rect width="103.849" height="103.849" stroke="none"/><rect x="0.5" y="0.5" width="102.849" height="102.849" fill="none"/></g><path d="M36.054,32.628,32.289,8.007a42.881,42.881,0,0,1,25.962,0L54.487,32.628a4.34,4.34,0,0,1-4.327,3.678H40.338a4.329,4.329,0,0,1-4.284-3.678M88.541,49.287h0a8.706,8.706,0,0,0-5.192-7.919A39.3,39.3,0,0,0,66.906,16.834L59.29,37.777a4.293,4.293,0,0,1-4.067,2.856h-19.9a4.293,4.293,0,0,1-4.067-2.856L23.635,16.834A39.32,39.32,0,0,0,7.192,41.325,8.767,8.767,0,0,0,2,49.287l27.91,7.962a17.832,17.832,0,0,0,4.76.692H55.785a17.832,17.832,0,0,0,4.76-.692Z" transform="translate(6.654 19.968)" fill="#6628ae"/></g></g><path d="M-234.414,1360.153c-.634.67-38.828,35.561-39.118,73.465-.767,37.439,41.575,41.22,50.147,41.22" transform="translate(274.637 -1341.548)" fill="none" stroke="#4d178a" stroke-width="5"/><path d="M-268.764,1360.231c.634.67,42.258,35.487,42.547,73.391.767,37.439-42.349,41.22-50.92,41.22" transform="translate(328.231 -1341.552)" fill="none" stroke="#4d178a" stroke-width="5"/><path d="M34.347,0A34.347,34.347,0,0,1,68.694,34.347H0A34.347,34.347,0,0,1,34.347,0Z" transform="translate(86.272 34.347) rotate(180)" fill="#6c2cb6"/><ellipse cx="5.725" cy="5.725" rx="5.725" ry="5.725" transform="translate(63.374 21.944)" fill="#6c2cb6"/><ellipse cx="5.725" cy="5.725" rx="5.725" ry="5.725" transform="translate(26.164 21.944)" fill="#6c2cb6"/></g></svg>